<svg xmlns="http://www.w3.org/2000/svg" xmlns:xlink="http://www.w3.org/1999/xlink" version="1.1" width="895" height="519.4" viewBox="7.8 152.9 895 519.4"><g><g transform="translate(182,166)"><g transform="rotate(270,27,41.5)"><g>
<path d="M54,0H0v83h54V0L54,0z" stroke="#000000" stroke-dasharray="none" fill="#FFFFFF"/>
<rect x="2.4" y="3.8" width="49.3" height="75.4" fill="none"/>
<circle fill="none" cx="27" cy="0" r="0.1"/>
<circle fill="none" cx="40.4" cy="0" r="0.1"/>
<circle fill="none" cx="54" cy="20.9" r="0.1"/>
<circle fill="none" cx="54" cy="41.5" r="0.1"/>
<circle fill="none" cx="54" cy="62.1" r="0.1"/>
<circle fill="none" cx="40.4" cy="83" r="0.1"/>
<circle fill="none" cx="27" cy="83" r="0.1"/>
<circle fill="none" cx="13.6" cy="83" r="0.1"/>
<circle fill="none" cx="0" cy="62.1" r="0.1"/>
<circle fill="none" cx="0" cy="41.5" r="0.1"/>
<circle fill="none" cx="0" cy="20.9" r="0.1"/>
<circle fill="none" cx="13.6" cy="0" r="0.1"/>
</g></g><rect stroke="none" stroke-width="0" fill="#FFFFFF" x="0" y="0" width="0" height="0" transform="translate(68.4,41.4)"/><path stroke="#000000" fill="none" d=""/><text font-family="OpenSansCondensedLight" font-size="14pt" fill="black" transform="translate(68.4,41.4)"/><rect stroke-width="0" fill="none" width="75.4" height="49.3" transform="translate(-10.7,16.9)"/><text font-family="OpenSansCondensedLight" font-size="14pt" fill="black" transform="translate(-10.7,16.9)" text-anchor="middle"><tspan x="37.7" y="20.4">SERVER</tspan><tspan x="37.7" y="41.4">102</tspan></text><path stroke="#000000" fill="none" transform="translate(-10.7,16.9)" d="M 23.7 44 51.7 44"/></g><g transform="translate(181,261)"><g transform="rotate(270,27,41.5)"><g>
<path d="M54,0H0v83h54V0L54,0z" stroke="#000000" stroke-dasharray="none" fill="#FFFFFF"/>
<rect x="2.4" y="3.8" width="49.3" height="75.4" fill="none"/>
<circle fill="none" cx="27" cy="0" r="0.1"/>
<circle fill="none" cx="40.4" cy="0" r="0.1"/>
<circle fill="none" cx="54" cy="20.9" r="0.1"/>
<circle fill="none" cx="54" cy="41.5" r="0.1"/>
<circle fill="none" cx="54" cy="62.1" r="0.1"/>
<circle fill="none" cx="40.4" cy="83" r="0.1"/>
<circle fill="none" cx="27" cy="83" r="0.1"/>
<circle fill="none" cx="13.6" cy="83" r="0.1"/>
<circle fill="none" cx="0" cy="62.1" r="0.1"/>
<circle fill="none" cx="0" cy="41.5" r="0.1"/>
<circle fill="none" cx="0" cy="20.9" r="0.1"/>
<circle fill="none" cx="13.6" cy="0" r="0.1"/>
</g></g><rect stroke="none" stroke-width="0" fill="#FFFFFF" x="0" y="0" width="0" height="0" transform="translate(68.4,41.4)"/><path stroke="#000000" fill="none" d=""/><text font-family="OpenSansCondensedLight" font-size="14pt" fill="black" transform="translate(68.4,41.4)"/><rect stroke-width="0" fill="none" width="75.4" height="49.3" transform="translate(-10.7,16.9)"/><text font-family="OpenSansCondensedLight" font-size="14pt" fill="black" transform="translate(-10.7,16.9)" text-anchor="middle"><tspan x="37.7" y="20.4">SERVER</tspan><tspan x="37.7" y="41.4">102</tspan></text><path stroke="#000000" fill="none" transform="translate(-10.7,16.9)" d="M 23.7 44 51.7 44"/></g><g transform="translate(13,177)"><g><g>
<path d="M114,0H0v153h114V0L114,0z" stroke="#000000" stroke-dasharray="none" fill="#FFFFFF"/>
<rect x="5" y="7" width="104" height="139" fill="none"/>
<circle fill="none" cx="57" cy="0" r="0.1"/>
<circle fill="none" cx="85.3" cy="0" r="0.1"/>
<circle fill="none" cx="114" cy="38.6" r="0.1"/>
<circle fill="none" cx="114" cy="76.5" r="0.1"/>
<circle fill="none" cx="114" cy="114.4" r="0.1"/>
<circle fill="none" cx="85.3" cy="153" r="0.1"/>
<circle fill="none" cx="57" cy="153" r="0.1"/>
<circle fill="none" cx="28.8" cy="153" r="0.1"/>
<circle fill="none" cx="0" cy="114.4" r="0.1"/>
<circle fill="none" cx="0" cy="76.5" r="0.1"/>
<circle fill="none" cx="0" cy="38.6" r="0.1"/>
<circle fill="none" cx="28.8" cy="0" r="0.1"/>
</g></g><rect stroke="none" stroke-width="0" fill="#FFFFFF" x="0" y="0" width="0" height="0" transform="translate(113.9,76.4)"/><path stroke="#000000" fill="none" d=""/><text font-family="OpenSansCondensedLight" font-size="14pt" fill="black" transform="translate(113.9,76.4)"/><rect stroke-width="0" fill="none" width="104" height="139" transform="translate(5,7)"/><text font-family="OpenSansCondensedLight" font-size="14pt" fill="black" transform="translate(5,7)" text-anchor="middle"><tspan x="52" y="65.3">TRANSCODER</tspan><tspan x="52" y="86.3">104</tspan></text><path stroke="#000000" fill="none" transform="translate(5,7)" d="M 38 88 66 88"/></g><g><path stroke="black" stroke-dasharray="none" d="M 124 208 168 208" fill="none"/><path fill="black" stroke="black" d="" transform="translate(124,208) scale(1,1) rotate(0)"/><path fill="black" stroke="black" d="" transform="translate(168,208) scale(1,1) rotate(-180)"/><g><g label-idx="0" cursor="move" transform="translate(146, 208)"><rect fill="white" rx="3" ry="3" x="0" y="0" width="0" height="0"/><text text-anchor="middle" font-size="14pt" font-family="OpenSansCondensedLight" y="0.8em" display="none" xml:space="preserve" transform="translate(0,0)"/></g></g></g><g><path stroke="black" stroke-dasharray="none" d="M 127 289 167 289" fill="none"/><path fill="black" stroke="black" d="" transform="translate(127,289) scale(1,1) rotate(0)"/><path fill="black" stroke="black" d="" transform="translate(167,289) scale(1,1) rotate(-180)"/><g><g label-idx="0" cursor="move" transform="translate(147, 289)"><rect fill="white" rx="3" ry="3" x="0" y="0" width="0" height="0"/><text text-anchor="middle" font-size="14pt" font-family="OpenSansCondensedLight" y="0.8em" display="none" xml:space="preserve" transform="translate(0,0)"/></g></g></g><g transform="translate(164,412)"><g><g>
<g stroke="#000000" stroke-dasharray="none" fill="#FFFFFF">
    <path d="M107.1,17.7H0v72c0,9.7,24,17.7,53.6,17.7s53.6,-8,53.6,-17.7v-72L107.1,17.7L107.1,17.7z"/>
    <path d="M53.6,0C24,0,0,8,0,17.7s24,17.7,53.6,17.7s53.6,-8,53.6,-17.7C107.1,8,83.1,0,53.6,0L53.6,0z"/>
</g>
<rect x="5.7" y="39.2" width="95.7" height="50.9" fill="none"/>
<circle fill="none" cx="53.6" cy="0" r="0.1"/>
<circle fill="none" cx="81.8" cy="2.7" r="0.1"/>
<circle fill="none" cx="107.3" cy="17.7" r="0.1"/>
<circle fill="none" cx="107.3" cy="53.6" r="0.1"/>
<circle fill="none" cx="107.3" cy="89.6" r="0.1"/>
<circle fill="none" cx="83.2" cy="104.3" r="0.1"/>
<circle fill="none" cx="53.6" cy="107.3" r="0.1"/>
<circle fill="none" cx="22.5" cy="103.9" r="0.1"/>
<circle fill="none" cx="0" cy="89.6" r="0.1"/>
<circle fill="none" cx="0" cy="53.6" r="0.1"/>
<circle fill="none" cx="0" cy="17.7" r="0.1"/>
<circle fill="none" cx="25.3" cy="2.7" r="0.1"/>
</g></g><rect stroke="none" stroke-width="0" fill="#FFFFFF" x="0" y="0" width="0" height="0" transform="translate(107.2,53.5)"/><path stroke="#000000" fill="none" d=""/><text font-family="OpenSansCondensedLight" font-size="14pt" fill="black" transform="translate(107.2,53.5)"/><rect stroke-width="0" fill="none" width="95.7" height="50.9" transform="translate(5.7,39.2)"/><text font-family="OpenSansCondensedLight" font-size="14pt" fill="black" transform="translate(5.7,39.2)" text-anchor="middle"><tspan x="47.8" y="10.8">MEDIA</tspan><tspan x="47.8" y="31.8">STORAGE</tspan><tspan x="47.8" y="52.8">106</tspan></text><path stroke="#000000" fill="none" transform="translate(5.7,39.2)" d="M 33.8 55 61.8 55"/></g><g transform="translate(299,153)"><g><g>
<path d="M172,0c-37.3,0,-68.7,22.8,-80,55C40.4,60.9,0,103.2,0,155.4c0,55.6,46.3,101.1,103.1,101.1c2.9,0,6,0,8.9,-0.7c10,33,40.6,57.2,78,57.2c30.6,0,57.6,-16.9,71,-41.7c14.2,14.6,34.4,23.5,56.7,23.5c35,0,65,-22,75.6,-52.8c0.7,0,0.7,0,1.6,0c47,0,85.1,-37.4,85.1,-83.5s-38.1,-83.7,-85.4,-83.7c-9.1,0,-17.3,1.5,-24.6,3.7c-7.5,-31.5,-36.6,-55,-71,-55c-20.2,0,-38.1,8,-51.7,21.3C233.2,18.2,204.9,0,172,0L172,0z" stroke="#000000" stroke-dasharray="none" fill="#FFFFFF"/>
<rect x="43.6" y="97.4" width="385.1" height="118.7" fill="none"/>
<circle fill="none" cx="247.4" cy="44.6" r="0.1"/>
<circle fill="none" cx="315.3" cy="25.2" r="0.1"/>
<circle fill="none" cx="370.2" cy="78.3" r="0.1"/>
<circle fill="none" cx="480" cy="155.6" r="0.1"/>
<circle fill="none" cx="393.3" cy="242" r="0.1"/>
<circle fill="none" cx="323.7" cy="294.5" r="0.1"/>
<circle fill="none" cx="261" cy="271.3" r="0.1"/>
<circle fill="none" cx="187.5" cy="313" r="0.1"/>
<circle fill="none" cx="0" cy="155.4" r="0.1"/>
<circle fill="none" cx="112" cy="255.8" r="0.1"/>
<circle fill="none" cx="92" cy="55" r="0.1"/>
<circle fill="none" cx="171.8" cy="0" r="0.1"/>
</g></g><rect stroke="none" stroke-width="0" fill="#FFFFFF" x="0" y="0" width="0" height="0" transform="translate(479.9,155.5)"/><path stroke="#000000" fill="none" d=""/><text font-family="OpenSansCondensedLight" font-size="14pt" fill="black" transform="translate(479.9,155.5)"/><rect stroke-width="0" fill="none" width="385.1" height="118.7" transform="translate(43.6,97.4)"/><text font-family="OpenSansCondensedLight" font-size="14pt" fill="black" transform="translate(43.6,97.4)" text-anchor="middle"><tspan x="192.5" y="16.8">NETWORK 108</tspan></text><path stroke="#000000" fill="none" transform="translate(43.6,97.4)" d="M 227.5 19 255.5 19"/></g><g transform="translate(319,250)"><g><g>
<path d="M134,0H0v103h134V0L134,0z" stroke="#000000" stroke-dasharray="none" fill="#FFFFFF"/>
<rect x="5.9" y="4.7" width="122.3" height="93.6" fill="none"/>
<circle fill="none" cx="67" cy="0" r="0.1"/>
<circle fill="none" cx="100.2" cy="0" r="0.1"/>
<circle fill="none" cx="134" cy="26" r="0.1"/>
<circle fill="none" cx="134" cy="51.5" r="0.1"/>
<circle fill="none" cx="134" cy="77" r="0.1"/>
<circle fill="none" cx="100.2" cy="103" r="0.1"/>
<circle fill="none" cx="67" cy="103" r="0.1"/>
<circle fill="none" cx="33.8" cy="103" r="0.1"/>
<circle fill="none" cx="0" cy="77" r="0.1"/>
<circle fill="none" cx="0" cy="51.5" r="0.1"/>
<circle fill="none" cx="0" cy="26" r="0.1"/>
<circle fill="none" cx="33.8" cy="0" r="0.1"/>
</g></g><rect stroke="none" stroke-width="0" fill="#FFFFFF" x="0" y="0" width="0" height="0" transform="translate(133.9,51.4)"/><path stroke="#000000" fill="none" d=""/><text font-family="OpenSansCondensedLight" font-size="14pt" fill="black" transform="translate(133.9,51.4)"/><rect stroke-width="0" fill="none" width="122.3" height="93.6" transform="translate(5.9,4.7)"/><text font-family="OpenSansCondensedLight" font-size="14pt" fill="black" transform="translate(5.9,4.7)" text-anchor="middle"><tspan x="61.1" y="42.6">INTERMEDIATE</tspan><tspan x="61.1" y="63.6">NODE 110</tspan></text><path stroke="#000000" fill="none" transform="translate(5.9,4.7)" d="M 75.7 66 103 66"/></g><g transform="translate(613,251)"><g><g>
<path d="M134,0H0v103h134V0L134,0z" stroke="#000000" stroke-dasharray="none" fill="#FFFFFF"/>
<rect x="5.9" y="4.7" width="122.3" height="93.6" fill="none"/>
<circle fill="none" cx="67" cy="0" r="0.1"/>
<circle fill="none" cx="100.2" cy="0" r="0.1"/>
<circle fill="none" cx="134" cy="26" r="0.1"/>
<circle fill="none" cx="134" cy="51.5" r="0.1"/>
<circle fill="none" cx="134" cy="77" r="0.1"/>
<circle fill="none" cx="100.2" cy="103" r="0.1"/>
<circle fill="none" cx="67" cy="103" r="0.1"/>
<circle fill="none" cx="33.8" cy="103" r="0.1"/>
<circle fill="none" cx="0" cy="77" r="0.1"/>
<circle fill="none" cx="0" cy="51.5" r="0.1"/>
<circle fill="none" cx="0" cy="26" r="0.1"/>
<circle fill="none" cx="33.8" cy="0" r="0.1"/>
</g></g><rect stroke="none" stroke-width="0" fill="#FFFFFF" x="0" y="0" width="0" height="0" transform="translate(133.9,51.4)"/><path stroke="#000000" fill="none" d=""/><text font-family="OpenSansCondensedLight" font-size="14pt" fill="black" transform="translate(133.9,51.4)"/><rect stroke-width="0" fill="none" width="122.3" height="93.6" transform="translate(5.9,4.7)"/><text font-family="OpenSansCondensedLight" font-size="14pt" fill="black" transform="translate(5.9,4.7)" text-anchor="middle"><tspan x="61.1" y="42.6">INTERMEDIATE</tspan><tspan x="61.1" y="63.6">NODE 110</tspan></text><path stroke="#000000" fill="none" transform="translate(5.9,4.7)" d="M 75.7 66 103 66"/></g><g><path stroke="black" stroke-dasharray="none" d="M 613 301 453 301" fill="none"/><path fill="black" stroke="black" d="" transform="translate(613,301) scale(1,1) rotate(-180)"/><path fill="black" stroke="black" d="" transform="translate(453,301) scale(1,1) rotate(0)"/><g><g label-idx="0" cursor="move" transform="translate(533, 301)"><rect fill="white" rx="3" ry="3" x="-95.1" y="-13.1" width="190.2" height="22"/><text text-anchor="start" font-size="14pt" font-family="OpenSansCondensedLight" y="0.8em" display="null" xml:space="preserve" transform="translate(0,-11)"><tspan x="-85.8" y="0.8em">BOTTLENECK LINK</tspan></text></g></g></g><g transform="translate(796,168)"><g><g>
<path d="M98.8,0H0v67.3h98.8V0L98.8,0z" stroke="#000000" stroke-dasharray="none" fill="#FFFFFF"/>
<rect x="4.3" y="3.1" width="90.1" height="61.2" fill="none"/>
<circle fill="none" cx="49.4" cy="0" r="0.1"/>
<circle fill="none" cx="73.9" cy="0" r="0.1"/>
<circle fill="none" cx="98.8" cy="17" r="0.1"/>
<circle fill="none" cx="98.8" cy="33.6" r="0.1"/>
<circle fill="none" cx="98.8" cy="50.3" r="0.1"/>
<circle fill="none" cx="73.9" cy="67.3" r="0.1"/>
<circle fill="none" cx="49.4" cy="67.3" r="0.1"/>
<circle fill="none" cx="24.9" cy="67.3" r="0.1"/>
<circle fill="none" cx="0" cy="50.3" r="0.1"/>
<circle fill="none" cx="0" cy="33.6" r="0.1"/>
<circle fill="none" cx="0" cy="17" r="0.1"/>
<circle fill="none" cx="24.9" cy="0" r="0.1"/>
</g></g><rect stroke="none" stroke-width="0" fill="#FFFFFF" x="0" y="0" width="0" height="0" transform="translate(98.7,33.5)"/><path stroke="#000000" fill="none" d=""/><text font-family="OpenSansCondensedLight" font-size="14pt" fill="black" transform="translate(98.7,33.5)"/><rect stroke-width="0" fill="none" width="90.1" height="61.2" transform="translate(4.3,3.1)"/><text font-family="OpenSansCondensedLight" font-size="14pt" fill="black" transform="translate(4.3,3.1)" text-anchor="middle"><tspan x="45.1" y="16.8">HAS</tspan><tspan x="45.1" y="37.8">CLIENT(S)</tspan><tspan x="45.1" y="58.8">112</tspan></text><path stroke="#000000" fill="none" transform="translate(4.3,3.1)" d="M 31.4 61 58.7 61"/></g><g transform="translate(794,271)"><g><g>
<path d="M98.8,0H0v67.3h98.8V0L98.8,0z" stroke="#000000" stroke-dasharray="none" fill="#FFFFFF"/>
<rect x="4.3" y="3.1" width="90.1" height="61.2" fill="none"/>
<circle fill="none" cx="49.4" cy="0" r="0.1"/>
<circle fill="none" cx="73.9" cy="0" r="0.1"/>
<circle fill="none" cx="98.8" cy="17" r="0.1"/>
<circle fill="none" cx="98.8" cy="33.6" r="0.1"/>
<circle fill="none" cx="98.8" cy="50.3" r="0.1"/>
<circle fill="none" cx="73.9" cy="67.3" r="0.1"/>
<circle fill="none" cx="49.4" cy="67.3" r="0.1"/>
<circle fill="none" cx="24.9" cy="67.3" r="0.1"/>
<circle fill="none" cx="0" cy="50.3" r="0.1"/>
<circle fill="none" cx="0" cy="33.6" r="0.1"/>
<circle fill="none" cx="0" cy="17" r="0.1"/>
<circle fill="none" cx="24.9" cy="0" r="0.1"/>
</g></g><rect stroke="none" stroke-width="0" fill="#FFFFFF" x="0" y="0" width="0" height="0" transform="translate(98.7,33.5)"/><path stroke="#000000" fill="none" d=""/><text font-family="OpenSansCondensedLight" font-size="14pt" fill="black" transform="translate(98.7,33.5)"/><rect stroke-width="0" fill="none" width="90.1" height="61.2" transform="translate(4.3,3.1)"/><text font-family="OpenSansCondensedLight" font-size="14pt" fill="black" transform="translate(4.3,3.1)" text-anchor="middle"><tspan x="45.1" y="16.8">HAS</tspan><tspan x="45.1" y="37.8">CLIENT(S)</tspan><tspan x="45.1" y="58.8">112</tspan></text><path stroke="#000000" fill="none" transform="translate(4.3,3.1)" d="M 31.4 61 58.7 61"/></g><g transform="translate(797,386)"><g><g>
<path d="M98,0H0v66.8h98V0L98,0z" stroke="#000000" stroke-dasharray="none" fill="#FFFFFF"/>
<rect x="4.3" y="3" width="89.4" height="60.7" fill="none"/>
<circle fill="none" cx="49" cy="0" r="0.1"/>
<circle fill="none" cx="73.3" cy="0" r="0.1"/>
<circle fill="none" cx="98" cy="16.8" r="0.1"/>
<circle fill="none" cx="98" cy="33.4" r="0.1"/>
<circle fill="none" cx="98" cy="49.9" r="0.1"/>
<circle fill="none" cx="73.3" cy="66.8" r="0.1"/>
<circle fill="none" cx="49" cy="66.8" r="0.1"/>
<circle fill="none" cx="24.7" cy="66.8" r="0.1"/>
<circle fill="none" cx="0" cy="49.9" r="0.1"/>
<circle fill="none" cx="0" cy="33.4" r="0.1"/>
<circle fill="none" cx="0" cy="16.8" r="0.1"/>
<circle fill="none" cx="24.7" cy="0" r="0.1"/>
</g></g><rect stroke="none" stroke-width="0" fill="#FFFFFF" x="0" y="0" width="0" height="0" transform="translate(97.9,33.3)"/><path stroke="#000000" fill="none" d=""/><text font-family="OpenSansCondensedLight" font-size="14pt" fill="black" transform="translate(97.9,33.3)"/><rect stroke-width="0" fill="none" width="89.4" height="60.7" transform="translate(4.3,3)"/><text font-family="OpenSansCondensedLight" font-size="14pt" fill="black" transform="translate(4.3,3)" text-anchor="middle"><tspan x="44.7" y="16.8">HAS</tspan><tspan x="44.7" y="37.8">CLIENT(S)</tspan><tspan x="44.7" y="58.8">112</tspan></text><path stroke="#000000" fill="none" transform="translate(4.3,3)" d="M 31.1 61 58.4 61"/></g><g><path stroke="black" stroke-dasharray="none" d="M 796 218 747 277" fill="none"/><path fill="black" stroke="black" d="" transform="translate(796,218) scale(1,1) rotate(-230.3)"/><path fill="black" stroke="black" d="" transform="translate(747,277) scale(1,1) rotate(-50.3)"/><g><g label-idx="0" cursor="move" transform="translate(771.5, 247.5)"><rect fill="white" rx="3" ry="3" x="0" y="0" width="0" height="0"/><text text-anchor="middle" font-size="14pt" font-family="OpenSansCondensedLight" y="0.8em" display="none" xml:space="preserve" transform="translate(0,0)"/></g></g></g><g><path stroke="black" stroke-dasharray="none" d="M 794 302 747 302" fill="none"/><path fill="black" stroke="black" d="" transform="translate(794,302) scale(1,1) rotate(-180)"/><path fill="black" stroke="black" d="" transform="translate(747,302) scale(1,1) rotate(0)"/><g><g label-idx="0" cursor="move" transform="translate(770.5, 302)"><rect fill="white" rx="3" ry="3" x="0" y="0" width="0" height="0"/><text text-anchor="middle" font-size="14pt" font-family="OpenSansCondensedLight" y="0.8em" display="none" xml:space="preserve" transform="translate(0,0)"/></g></g></g><g><path stroke="black" stroke-dasharray="none" d="M 797 403 747 328" fill="none"/><path fill="black" stroke="black" d="" transform="translate(797,403) scale(1,1) rotate(-123.7)"/><path fill="black" stroke="black" d="" transform="translate(747,328) scale(1,1) rotate(56.3)"/><g><g label-idx="0" cursor="move" transform="translate(772, 365.5)"><rect fill="white" rx="3" ry="3" x="0" y="0" width="0" height="0"/><text text-anchor="middle" font-size="14pt" font-family="OpenSansCondensedLight" y="0.8em" display="none" xml:space="preserve" transform="translate(0,0)"/></g></g></g><g><path stroke="black" stroke-dasharray="none" d="M 319 303 249 303" fill="none"/><path fill="black" stroke="black" d="" transform="translate(319,303) scale(1,1) rotate(-180)"/><path fill="black" stroke="black" d="" transform="translate(249,303) scale(1,1) rotate(0)"/><g><g label-idx="0" cursor="move" transform="translate(284, 303)"><rect fill="white" rx="3" ry="3" x="0" y="0" width="0" height="0"/><text text-anchor="middle" font-size="14pt" font-family="OpenSansCondensedLight" y="0.8em" display="none" xml:space="preserve" transform="translate(0,0)"/></g></g></g><g><path stroke="black" stroke-dasharray="none" d="M 319 276 250 221" fill="none"/><path fill="black" stroke="black" d="" transform="translate(319,276) scale(1,1) rotate(-141.4)"/><path fill="black" stroke="black" d="" transform="translate(250,221) scale(1,1) rotate(38.6)"/><g><g label-idx="0" cursor="move" transform="translate(284.5, 248.5)"><rect fill="white" rx="3" ry="3" x="0" y="0" width="0" height="0"/><text text-anchor="middle" font-size="14pt" font-family="OpenSansCondensedLight" y="0.8em" display="none" xml:space="preserve" transform="translate(0,0)"/></g></g></g><g><path stroke="black" stroke-dasharray="none" d="M 271 430 324 373" fill="none"/><path fill="black" stroke="black" d="" transform="translate(271,430) scale(1,1) rotate(-47.1)"/><path fill="black" stroke="black" d="" transform="translate(324,373) scale(1,1) rotate(-227.1)"/><g><g label-idx="0" cursor="move" transform="translate(297.5, 401.5)"><rect fill="white" rx="3" ry="3" x="0" y="0" width="0" height="0"/><text text-anchor="middle" font-size="14pt" font-family="OpenSansCondensedLight" y="0.8em" display="none" xml:space="preserve" transform="translate(0,0)"/></g></g></g></g><defs/></svg>